<svg class="svg-icon" style="width: 1em; height: 1em;vertical-align: middle;fill: currentColor;overflow: hidden;" viewBox="0 0 1024 1024" version="1.1" xmlns="http://www.w3.org/2000/svg"><path d="M512 42.65984q95.66208 0 182.49728 37.1712t149.66784 100.00384 100.00384 149.66784 37.1712 182.49728-37.1712 182.49728-100.00384 149.66784-149.66784 100.00384-182.49728 37.1712-182.49728-37.1712-149.66784-100.00384-100.00384-149.66784-37.1712-182.49728 37.1712-182.49728 100.00384-149.66784 149.66784-100.00384 182.49728-37.1712zM512 128q-78.00832 0-149.17632 30.49472t-122.49088 81.83808-81.83808 122.49088-30.49472 149.17632 30.49472 149.17632 81.83808 122.49088 122.49088 81.83808 149.17632 30.49472 149.17632-30.49472 122.49088-81.83808 81.83808-122.49088 30.49472-149.17632-30.49472-149.17632-81.83808-122.49088-122.49088-81.83808-149.17632-30.49472zM632.66816 348.32384q17.67424 0 30.33088 12.4928t12.67712 30.16704-12.67712 30.33088l-90.66496 90.66496 90.66496 90.33728q12.67712 12.67712 12.67712 30.0032 0 17.67424-12.67712 30.16704t-30.33088 12.4928-30.0032-12.32896l-90.66496-90.33728-90.33728 90.33728q-12.32896 12.32896-30.33088 12.32896-17.67424 0-30.16704-12.32896t-12.4928-30.0032q0-18.00192 12.32896-30.33088l90.66496-90.33728-90.66496-90.66496q-12.32896-12.32896-12.32896-30.0032t12.4928-30.33088 30.16704-12.67712 30.33088 12.67712l90.33728 90.66496 90.66496-90.66496q12.67712-12.67712 30.0032-12.67712z"  /></svg>